<svg xmlns="http://www.w3.org/2000/svg" viewBox="0 0 32 32" shape-rendering="crispEdges">
  <rect width="32" height="32" fill="#050101"/>
  <!-- Base/platform -->
  <rect x="8" y="27" width="16" height="2" fill="#4a1a1a"/>
  <rect x="9" y="26" width="14" height="1" fill="#5c1414"/>
  <rect x="10" y="25" width="12" height="1" fill="#8b2525"/>
  <!-- Lower body -->
  <rect x="13" y="22" width="6" height="1" fill="#991b1b"/>
  <rect x="12" y="23" width="8" height="1" fill="#7f1d1d"/>
  <rect x="11" y="24" width="10" height="1" fill="#991b1b"/>
  <!-- Core body -->
  <rect x="13" y="10" width="6" height="12" fill="#dc2626"/>
  <rect x="14" y="10" width="4" height="12" fill="#ef4444"/>
  <!-- Body segments -->
  <rect x="13" y="13" width="6" height="1" fill="#b91c1c"/>
  <rect x="13" y="16" width="6" height="1" fill="#b91c1c"/>
  <rect x="13" y="19" width="6" height="1" fill="#b91c1c"/>
  <!-- Head top -->
  <rect x="14" y="7" width="4" height="1" fill="#ff4444"/>
  <rect x="15" y="6" width="2" height="1" fill="#ff6666"/>
  <!-- Head/face -->
  <rect x="13" y="8" width="6" height="2" fill="#ef4444"/>
  <!-- Eyes -->
  <rect x="13" y="8" width="2" height="2" fill="#1a1a1a"/>
  <rect x="14" y="8" width="1" height="1" fill="#ff6666"/>
  <rect x="17" y="8" width="2" height="2" fill="#1a1a1a"/>
  <rect x="18" y="8" width="1" height="1" fill="#ff6666"/>
  <!-- Left antenna -->
  <rect x="12" y="5" width="1" height="3" fill="#ff4444"/>
  <rect x="11" y="4" width="1" height="2" fill="#ff6666"/>
  <rect x="10" y="3" width="1" height="2" fill="#ff6666"/>
  <!-- Right antenna -->
  <rect x="19" y="5" width="1" height="3" fill="#ff4444"/>
  <rect x="20" y="4" width="1" height="2" fill="#ff6666"/>
  <rect x="21" y="3" width="1" height="2" fill="#ff6666"/>
  <!-- Left arm -->
  <rect x="10" y="11" width="3" height="2" fill="#dc2626"/>
  <rect x="8" y="11" width="2" height="1" fill="#ef4444"/>
  <rect x="8" y="13" width="2" height="1" fill="#ef4444"/>
  <rect x="7" y="12" width="1" height="1" fill="#ff4444"/>
  <rect x="9" y="12" width="1" height="1" fill="#0a0a0a"/>
  <!-- Right arm -->
  <rect x="19" y="11" width="3" height="2" fill="#dc2626"/>
  <rect x="22" y="11" width="2" height="1" fill="#ef4444"/>
  <rect x="22" y="13" width="2" height="1" fill="#ef4444"/>
  <rect x="24" y="12" width="1" height="1" fill="#ff4444"/>
  <rect x="22" y="12" width="1" height="1" fill="#0a0a0a"/>
  <!-- Arm details -->
  <rect x="11" y="15" width="2" height="1" fill="#b91c1c"/>
  <rect x="11" y="18" width="2" height="1" fill="#b91c1c"/>
  <rect x="19" y="15" width="2" height="1" fill="#b91c1c"/>
  <rect x="19" y="18" width="2" height="1" fill="#b91c1c"/>
  <!-- Flame/glow at bottom -->
  <rect x="13" y="25" width="6" height="1" fill="#f59e0b"/>
  <rect x="14" y="26" width="4" height="1" fill="#f59e0b"/>
  <rect x="15" y="27" width="2" height="1" fill="#fbbf24"/>
  <rect x="12" y="25" width="1" height="1" fill="#ef4444"/>
  <rect x="19" y="25" width="1" height="1" fill="#ef4444"/>
</svg>
